<svg width="22" height="22" viewBox="0 0 22 22" fill="none" xmlns="http://www.w3.org/2000/svg">
<path d="M10.5881 6.60984C10.6496 6.67065 10.6984 6.74291 10.7317 6.82248C10.7651 6.90204 10.7822 6.98734 10.7822 7.07349C10.7822 7.15964 10.7651 7.24494 10.7317 7.32451C10.6984 7.40407 10.6496 7.47633 10.5881 7.53714L7.75673 10.3458L15.8401 10.3458C16.0151 10.3458 16.183 10.4147 16.3067 10.5375C16.4305 10.6602 16.5 10.8267 16.5 11.0003C16.5 11.1739 16.4305 11.3404 16.3067 11.4632C16.183 11.5859 16.0151 11.6549 15.8401 11.6549L7.75673 11.6549L10.5881 14.4646C10.7121 14.5876 10.7817 14.7544 10.7817 14.9283C10.7817 15.1022 10.7121 15.269 10.5881 15.3919C10.4642 15.5149 10.296 15.584 10.1207 15.584C9.9454 15.584 9.77727 15.5149 9.6533 15.3919L5.69408 11.4645C5.63256 11.4037 5.58375 11.3315 5.55045 11.2519C5.51714 11.1723 5.5 11.087 5.5 11.0009C5.5 10.9147 5.51714 10.8294 5.55045 10.7499C5.58375 10.6703 5.63256 10.598 5.69408 10.5372L9.6533 6.60984C9.7146 6.54882 9.78745 6.5004 9.86766 6.46736C9.94787 6.43433 10.0339 6.41732 10.1207 6.41732C10.2076 6.41732 10.2936 6.43433 10.3738 6.46736C10.454 6.5004 10.5268 6.54882 10.5881 6.60984Z" fill="black"/>
<circle cx="11" cy="11" r="10.5" stroke="black"/>
</svg>
