<svg width="22" height="29" viewBox="0 0 22 29" fill="none" xmlns="http://www.w3.org/2000/svg">
<path d="M13.75 0H2.75C1.2375 0 0.0137503 1.28118 0.0137503 2.84706L0 25.6235C0 27.1894 1.22375 28.4706 2.73625 28.4706H19.25C20.7625 28.4706 22 27.1894 22 25.6235V8.54118L13.75 0ZM2.75 25.6235V2.84706H12.375V9.96471H19.25V25.6235H2.75Z" fill="black"/>
<rect x="2" y="13" width="15" height="8" fill="black"/>
<path d="M7.513 15.325H6.205V19H5.398V15.325H4.09V14.662H7.513V15.325ZM11.9327 16.831C11.9327 17.149 11.8797 17.441 11.7737 17.707C11.6677 17.973 11.5187 18.202 11.3267 18.394C11.1347 18.586 10.9037 18.735 10.6337 18.841C10.3637 18.947 10.0637 19 9.73366 19H8.08066V14.662H9.73366C10.0637 14.662 10.3637 14.716 10.6337 14.824C10.9037 14.93 11.1347 15.079 11.3267 15.271C11.5187 15.461 11.6677 15.689 11.7737 15.955C11.8797 16.221 11.9327 16.513 11.9327 16.831ZM11.1047 16.831C11.1047 16.593 11.0727 16.38 11.0087 16.192C10.9467 16.002 10.8557 15.842 10.7357 15.712C10.6177 15.58 10.4737 15.479 10.3037 15.409C10.1357 15.339 9.94566 15.304 9.73366 15.304H8.89066V18.358H9.73366C9.94566 18.358 10.1357 18.323 10.3037 18.253C10.4737 18.183 10.6177 18.083 10.7357 17.953C10.8557 17.821 10.9467 17.661 11.0087 17.473C11.0727 17.283 11.1047 17.069 11.1047 16.831ZM14.9551 15.451C14.9311 15.493 14.9051 15.524 14.8771 15.544C14.8511 15.562 14.8181 15.571 14.7781 15.571C14.7361 15.571 14.6901 15.556 14.6401 15.526C14.5921 15.494 14.5341 15.459 14.4661 15.421C14.3981 15.383 14.3181 15.349 14.2261 15.319C14.1361 15.287 14.0291 15.271 13.9051 15.271C13.7931 15.271 13.6951 15.285 13.6111 15.313C13.5271 15.339 13.4561 15.376 13.3981 15.424C13.3421 15.472 13.3001 15.53 13.2721 15.598C13.2441 15.664 13.2301 15.737 13.2301 15.817C13.2301 15.919 13.2581 16.004 13.3141 16.072C13.3721 16.14 13.4481 16.198 13.5421 16.246C13.6361 16.294 13.7431 16.337 13.8631 16.375C13.9831 16.413 14.1061 16.454 14.2321 16.498C14.3581 16.54 14.4811 16.59 14.6011 16.648C14.7211 16.704 14.8281 16.776 14.9221 16.864C15.0161 16.95 15.0911 17.056 15.1471 17.182C15.2051 17.308 15.2341 17.461 15.2341 17.641C15.2341 17.837 15.2001 18.021 15.1321 18.193C15.0661 18.363 14.9681 18.512 14.8381 18.64C14.7101 18.766 14.5531 18.866 14.3671 18.94C14.1811 19.012 13.9681 19.048 13.7281 19.048C13.5901 19.048 13.4541 19.034 13.3201 19.006C13.1861 18.98 13.0571 18.942 12.9331 18.892C12.8111 18.842 12.6961 18.782 12.5881 18.712C12.4801 18.642 12.3841 18.564 12.3001 18.478L12.5371 18.091C12.5571 18.063 12.5831 18.04 12.6151 18.022C12.6471 18.002 12.6811 17.992 12.7171 17.992C12.7671 17.992 12.8211 18.013 12.8791 18.055C12.9371 18.095 13.0061 18.14 13.0861 18.19C13.1661 18.24 13.2591 18.286 13.3651 18.328C13.4731 18.368 13.6021 18.388 13.7521 18.388C13.9821 18.388 14.1601 18.334 14.2861 18.226C14.4121 18.116 14.4751 17.959 14.4751 17.755C14.4751 17.641 14.4461 17.548 14.3881 17.476C14.3321 17.404 14.2571 17.344 14.1631 17.296C14.0691 17.246 13.9621 17.204 13.8421 17.17C13.7221 17.136 13.6001 17.099 13.4761 17.059C13.3521 17.019 13.2301 16.971 13.1101 16.915C12.9901 16.859 12.8831 16.786 12.7891 16.696C12.6951 16.606 12.6191 16.494 12.5611 16.36C12.5051 16.224 12.4771 16.057 12.4771 15.859C12.4771 15.701 12.5081 15.547 12.5701 15.397C12.6341 15.247 12.7261 15.114 12.8461 14.998C12.9661 14.882 13.1141 14.789 13.2901 14.719C13.4661 14.649 13.6681 14.614 13.8961 14.614C14.1521 14.614 14.3881 14.654 14.6041 14.734C14.8201 14.814 15.0041 14.926 15.1561 15.07L14.9551 15.451Z" fill="white"/>
</svg>
