<svg width="139" height="48" viewBox="0 0 139 48" fill="none" xmlns="http://www.w3.org/2000/svg">
<rect y="23" width="139" height="25" rx="6" fill="#F66969"/>
<path d="M49.284 36.121C49.662 36.121 49.9933 36.072 50.278 35.974C50.5673 35.876 50.8077 35.7383 50.999 35.561C51.195 35.379 51.342 35.1643 51.44 34.917C51.538 34.665 51.587 34.3873 51.587 34.084C51.587 33.4727 51.3957 32.992 51.013 32.642C50.635 32.292 50.0587 32.117 49.284 32.117H47.73V36.121H49.284ZM49.284 30.948C49.928 30.948 50.488 31.0227 50.964 31.172C51.44 31.3213 51.8343 31.5337 52.147 31.809C52.4597 32.0797 52.6907 32.4087 52.84 32.796C52.994 33.1833 53.071 33.6127 53.071 34.084C53.071 34.5553 52.9893 34.9893 52.826 35.386C52.6627 35.778 52.4223 36.1163 52.105 36.401C51.7877 36.6857 51.391 36.9073 50.915 37.066C50.4437 37.22 49.9 37.297 49.284 37.297H47.73V41H46.239V30.948H49.284ZM58.7911 36.653C58.7911 36.3823 58.7514 36.1327 58.6721 35.904C58.5974 35.6753 58.4854 35.477 58.3361 35.309C58.1868 35.141 58.0048 35.0103 57.7901 34.917C57.5754 34.8237 57.3281 34.777 57.0481 34.777C56.4741 34.777 56.0214 34.9427 55.6901 35.274C55.3634 35.6053 55.1558 36.065 55.0671 36.653H58.7911ZM59.9181 39.985C59.7501 40.181 59.5564 40.3513 59.3371 40.496C59.1178 40.636 58.8844 40.7503 58.6371 40.839C58.3898 40.9277 58.1331 40.993 57.8671 41.035C57.6058 41.077 57.3468 41.098 57.0901 41.098C56.6001 41.098 56.1451 41.0163 55.7251 40.853C55.3098 40.685 54.9481 40.4423 54.6401 40.125C54.3368 39.803 54.0988 39.4063 53.9261 38.935C53.7581 38.459 53.6741 37.913 53.6741 37.297C53.6741 36.8023 53.7511 36.3427 53.9051 35.918C54.0591 35.4887 54.2784 35.1153 54.5631 34.798C54.8524 34.4807 55.2048 34.231 55.6201 34.049C56.0354 33.867 56.5021 33.776 57.0201 33.776C57.4541 33.776 57.8531 33.8483 58.2171 33.993C58.5858 34.133 58.9031 34.3383 59.1691 34.609C59.4351 34.8797 59.6428 35.2133 59.7921 35.61C59.9461 36.0067 60.0231 36.4593 60.0231 36.968C60.0231 37.178 59.9998 37.3203 59.9531 37.395C59.9064 37.465 59.8201 37.5 59.6941 37.5H55.0321C55.0461 37.9247 55.1068 38.2957 55.2141 38.613C55.3214 38.9257 55.4684 39.187 55.6551 39.397C55.8464 39.607 56.0728 39.7633 56.3341 39.866C56.5954 39.9687 56.8871 40.02 57.2091 40.02C57.5124 40.02 57.7738 39.985 57.9931 39.915C58.2171 39.845 58.4084 39.7703 58.5671 39.691C58.7304 39.607 58.8658 39.53 58.9731 39.46C59.0851 39.39 59.1831 39.355 59.2671 39.355C59.3791 39.355 59.4654 39.397 59.5261 39.481L59.9181 39.985ZM62.7713 34.875C62.9253 34.7117 63.0863 34.5623 63.2543 34.427C63.4223 34.2917 63.5996 34.1773 63.7863 34.084C63.9776 33.986 64.1806 33.9113 64.3953 33.86C64.6146 33.804 64.8479 33.776 65.0953 33.776C65.4873 33.776 65.8303 33.8413 66.1243 33.972C66.4229 34.1027 66.6726 34.287 66.8733 34.525C67.0739 34.7583 67.2256 35.0407 67.3283 35.372C67.4309 35.7033 67.4823 36.0697 67.4823 36.471V41H66.1103V36.471C66.1103 35.9623 65.9936 35.568 65.7603 35.288C65.5269 35.0033 65.1699 34.861 64.6893 34.861C64.3393 34.861 64.0103 34.945 63.7023 35.113C63.3989 35.2763 63.1166 35.5003 62.8553 35.785V41H61.4903V33.888H62.3093C62.5006 33.888 62.6196 33.979 62.6663 34.161L62.7713 34.875ZM73.9092 35.61C73.6852 35.316 73.4426 35.1107 73.1812 34.994C72.9246 34.8773 72.6352 34.819 72.3132 34.819C71.6879 34.819 71.2026 35.0453 70.8572 35.498C70.5166 35.946 70.3462 36.6017 70.3462 37.465C70.3462 37.9177 70.3836 38.305 70.4582 38.627C70.5376 38.9443 70.6496 39.2057 70.7942 39.411C70.9436 39.6117 71.1256 39.761 71.3402 39.859C71.5549 39.9523 71.7976 39.999 72.0682 39.999C72.4649 39.999 72.8079 39.9103 73.0972 39.733C73.3866 39.5557 73.6572 39.306 73.9092 38.984V35.61ZM75.2812 30.668V41H74.4552C74.2639 41 74.1449 40.909 74.0982 40.727L73.9792 39.908C73.6759 40.2673 73.3306 40.5567 72.9432 40.776C72.5606 40.9907 72.1172 41.098 71.6132 41.098C71.2072 41.098 70.8386 41.0187 70.5072 40.86C70.1806 40.7013 69.9006 40.4703 69.6672 40.167C69.4339 39.859 69.2542 39.4787 69.1282 39.026C69.0022 38.5733 68.9392 38.053 68.9392 37.465C68.9392 36.9377 69.0092 36.4477 69.1492 35.995C69.2892 35.5423 69.4922 35.1503 69.7582 34.819C70.0242 34.4877 70.3462 34.2287 70.7242 34.042C71.1022 33.8507 71.5292 33.755 72.0052 33.755C72.4346 33.755 72.7986 33.825 73.0972 33.965C73.4006 34.105 73.6712 34.3033 73.9092 34.56V30.668H75.2812ZM78.6136 33.888V41H77.2486V33.888H78.6136ZM78.8726 31.69C78.8726 31.816 78.8469 31.9373 78.7956 32.054C78.7442 32.166 78.6742 32.2663 78.5856 32.355C78.5016 32.439 78.4012 32.5067 78.2846 32.558C78.1679 32.6047 78.0466 32.628 77.9206 32.628C77.7946 32.628 77.6756 32.6047 77.5636 32.558C77.4516 32.5067 77.3512 32.439 77.2626 32.355C77.1786 32.2663 77.1109 32.166 77.0596 32.054C77.0129 31.9373 76.9896 31.816 76.9896 31.69C76.9896 31.5593 77.0129 31.438 77.0596 31.326C77.1109 31.2093 77.1786 31.109 77.2626 31.025C77.3512 30.9363 77.4516 30.8687 77.5636 30.822C77.6756 30.7707 77.7946 30.745 77.9206 30.745C78.0466 30.745 78.1679 30.7707 78.2846 30.822C78.4012 30.8687 78.5016 30.9363 78.5856 31.025C78.6742 31.109 78.7442 31.2093 78.7956 31.326C78.8469 31.438 78.8726 31.5593 78.8726 31.69ZM81.8709 34.875C82.0249 34.7117 82.1859 34.5623 82.3539 34.427C82.5219 34.2917 82.6992 34.1773 82.8859 34.084C83.0772 33.986 83.2802 33.9113 83.4949 33.86C83.7142 33.804 83.9475 33.776 84.1949 33.776C84.5869 33.776 84.9299 33.8413 85.2239 33.972C85.5225 34.1027 85.7722 34.287 85.9729 34.525C86.1735 34.7583 86.3252 35.0407 86.4279 35.372C86.5305 35.7033 86.5819 36.0697 86.5819 36.471V41H85.2099V36.471C85.2099 35.9623 85.0932 35.568 84.8599 35.288C84.6265 35.0033 84.2695 34.861 83.7889 34.861C83.4389 34.861 83.1099 34.945 82.8019 35.113C82.4985 35.2763 82.2162 35.5003 81.9549 35.785V41H80.5899V33.888H81.4089C81.6002 33.888 81.7192 33.979 81.7659 34.161L81.8709 34.875ZM90.9228 37.451C91.1655 37.451 91.3778 37.4183 91.5598 37.353C91.7465 37.2877 91.9005 37.1967 92.0218 37.08C92.1478 36.9587 92.2412 36.814 92.3018 36.646C92.3672 36.478 92.3998 36.2937 92.3998 36.093C92.3998 35.6823 92.2738 35.3557 92.0218 35.113C91.7745 34.8657 91.4082 34.742 90.9228 34.742C90.4422 34.742 90.0758 34.8657 89.8238 35.113C89.5765 35.3557 89.4528 35.6823 89.4528 36.093C89.4528 36.2937 89.4832 36.478 89.5438 36.646C89.6092 36.8093 89.7025 36.9517 89.8238 37.073C89.9498 37.1897 90.1038 37.283 90.2858 37.353C90.4725 37.4183 90.6848 37.451 90.9228 37.451ZM93.0998 41.371C93.0998 41.203 93.0532 41.07 92.9598 40.972C92.8665 40.8693 92.7382 40.79 92.5748 40.734C92.4162 40.6733 92.2295 40.6313 92.0148 40.608C91.8002 40.58 91.5738 40.559 91.3358 40.545C91.1025 40.531 90.8622 40.5193 90.6148 40.51C90.3675 40.496 90.1295 40.4727 89.9008 40.44C89.6582 40.5613 89.4575 40.7083 89.2988 40.881C89.1448 41.0537 89.0678 41.2567 89.0678 41.49C89.0678 41.6393 89.1052 41.7793 89.1798 41.91C89.2592 42.0407 89.3782 42.1527 89.5368 42.246C89.7002 42.344 89.9032 42.4187 90.1458 42.47C90.3932 42.526 90.6872 42.554 91.0278 42.554C91.3638 42.554 91.6602 42.5237 91.9168 42.463C92.1735 42.407 92.3882 42.3253 92.5608 42.218C92.7382 42.1153 92.8712 41.9917 92.9598 41.847C93.0532 41.7023 93.0998 41.5437 93.0998 41.371ZM94.4858 34.154V34.665C94.4858 34.833 94.3808 34.938 94.1708 34.98L93.4078 35.092C93.4732 35.2367 93.5245 35.3907 93.5618 35.554C93.5992 35.7127 93.6178 35.8807 93.6178 36.058C93.6178 36.408 93.5502 36.7253 93.4148 37.01C93.2795 37.29 93.0928 37.5303 92.8548 37.731C92.6168 37.9317 92.3322 38.0857 92.0008 38.193C91.6742 38.3003 91.3148 38.354 90.9228 38.354C90.6008 38.354 90.2998 38.319 90.0198 38.249C89.8798 38.333 89.7725 38.4263 89.6978 38.529C89.6278 38.627 89.5928 38.725 89.5928 38.823C89.5928 38.9863 89.6605 39.1077 89.7958 39.187C89.9358 39.2663 90.1155 39.3247 90.3348 39.362C90.5588 39.3947 90.8132 39.4157 91.0978 39.425C91.3872 39.4343 91.6788 39.4507 91.9728 39.474C92.2715 39.4927 92.5632 39.53 92.8478 39.586C93.1372 39.6373 93.3915 39.7237 93.6108 39.845C93.8348 39.9617 94.0145 40.125 94.1498 40.335C94.2898 40.5403 94.3598 40.8087 94.3598 41.14C94.3598 41.448 94.2828 41.7467 94.1288 42.036C93.9795 42.3253 93.7602 42.582 93.4708 42.806C93.1815 43.03 92.8292 43.2097 92.4138 43.345C91.9985 43.4803 91.5272 43.548 90.9998 43.548C90.4725 43.548 90.0128 43.4967 89.6208 43.394C89.2335 43.2913 88.9092 43.1537 88.6478 42.981C88.3912 42.8083 88.1975 42.6077 88.0668 42.379C87.9408 42.1503 87.8778 41.9123 87.8778 41.665C87.8778 41.3197 87.9852 41.028 88.1998 40.79C88.4145 40.5473 88.7108 40.3583 89.0888 40.223C88.8835 40.1297 88.7202 40.0037 88.5988 39.845C88.4775 39.6817 88.4168 39.467 88.4168 39.201C88.4168 39.0983 88.4355 38.9933 88.4728 38.886C88.5102 38.774 88.5662 38.6643 88.6408 38.557C88.7202 38.445 88.8158 38.34 88.9278 38.242C89.0445 38.144 89.1775 38.0553 89.3268 37.976C88.9768 37.78 88.7015 37.521 88.5008 37.199C88.3002 36.8723 88.1998 36.492 88.1998 36.058C88.1998 35.708 88.2675 35.393 88.4028 35.113C88.5382 34.833 88.7248 34.5927 88.9628 34.392C89.2055 34.1913 89.4925 34.0373 89.8238 33.93C90.1598 33.8227 90.5262 33.769 90.9228 33.769C91.5388 33.769 92.0685 33.8973 92.5118 34.154H94.4858Z" fill="white"/>
<circle cx="70" cy="15" r="14" fill="white" stroke="#F66969" stroke-width="2"/>
<path d="M65 9H75M65 22H75M66.3889 22V18.6087L67.9756 17.6399C68.3388 17.4182 68.6394 17.1046 68.8481 16.7296C69.0568 16.3546 69.1665 15.931 69.1665 15.5C69.1665 15.069 69.0568 14.6454 68.8481 14.2704C68.6394 13.8954 68.3388 13.5818 67.9756 13.3601L66.3889 12.3913V9M73.6111 9V12.3913L72.0244 13.3601C71.6613 13.5819 71.3609 13.8956 71.1522 14.2706C70.9436 14.6455 70.834 15.0691 70.834 15.5C70.834 15.9309 70.9436 16.3545 71.1522 16.7294C71.3609 17.1044 71.6613 17.4181 72.0244 17.6399L73.6111 18.6087V22" stroke="#F66969"/>
</svg>
